<?xml version="1.0" encoding="UTF-8"?>
<svg width="18px" height="18px" viewBox="0 0 18 18" version="1.1" xmlns="http://www.w3.org/2000/svg" xmlns:xlink="http://www.w3.org/1999/xlink">
    <!-- Generator: Sketch 52 (66869) - http://www.bohemiancoding.com/sketch -->
    <title>toolbar close x default</title>
    <desc>Created with Sketch.</desc>
    <g id="Other" stroke="none" stroke-width="1" fill="none" fill-rule="evenodd">
        <g id="Google-translate-widget-placement-v2" transform="translate(-901.000000, -13.000000)">
            <g id="toolbar-close-x-default" transform="translate(901.000000, 13.000000)">
                <g id="Group-4">
                    <rect id="Rectangle" stroke="#D1D1D1" fill="#FFFFFF" x="0.5" y="0.5" width="17" height="17" rx="8.5"></rect>
                    <path d="M9.57605159,8.89674704 C9.56100492,8.88173836 9.55254859,8.8613594 9.55254859,8.84010704 C9.55254859,8.81885468 9.56100492,8.79847572 9.57605159,8.78346704 L12.5402116,5.81962704 C12.7276349,5.63193859 12.72742,5.3278504 12.5397316,5.14042705 C12.3520431,4.9530037 12.0479549,4.9532186 11.8605316,5.14090704 L8.89669159,8.10346704 C8.88168291,8.11851371 8.86130395,8.12697004 8.84005159,8.12697004 C8.81879923,8.12697004 8.79842027,8.11851371 8.78341159,8.10346704 L5.81957159,5.14090704 C5.63214824,4.95339532 5.32820331,4.95332369 5.14069159,5.14074704 C4.95317987,5.32817039 4.95310824,5.63211532 5.14053159,5.81962704 L8.10405159,8.78346704 C8.11909826,8.79847572 8.1275546,8.81885468 8.1275546,8.84010704 C8.1275546,8.8613594 8.11909826,8.88173836 8.10405159,8.89674704 L5.14053159,11.860907 C5.01928994,11.9822059 4.97197018,12.1589722 5.01639721,12.32462 C5.06082424,12.4902677 5.19024853,12.619631 5.35591721,12.66398 C5.52158589,12.7083289 5.69832994,12.6609259 5.81957159,12.539627 L8.78341159,9.57546704 C8.79842027,9.56042037 8.81879923,9.55196403 8.84005159,9.55196403 C8.86130395,9.55196403 8.88168291,9.56042037 8.89669159,9.57546704 L11.8605316,12.539627 C12.0479549,12.7271388 12.3518999,12.7272104 12.5394116,12.539787 C12.7269233,12.3523637 12.7269949,12.0484188 12.5395716,11.860907 L9.57605159,8.89674704 Z" id="Path" fill="#4F5A65"></path>
                </g>
                <g id="close" transform="translate(5.000000, 5.000000)"></g>
            </g>
        </g>
    </g>
</svg>